# xmcd
#
# Track frame offsets:
#	150
#	15342
#	27417
#	37597
#	49956
#	58910
#	80230
#	95868
#	111398
#	124295
#	135367
#	156132
#	169656
#	185140
#
# Disc length: 2633 seconds
#
# Revision: 0
# Processed by: cddbd v1.5.2PL0 Copyright (c) Steve Scherf et al.
# Submitted via: audiograbber 1.83.01
#
DISCID=c10a470e
DTITLE=Andre Ahrens - Saddle Up
DYEAR=2015
DGENRE=Country
TTITLE0=Wake The Devil
TTITLE1=Ace In The Hole
TTITLE2=Saddle Up
TTITLE3=Separate Ways
TTITLE4=Mr. Right
TTITLE5=No Deeper Blue
TTITLE6=You Look So Good In Love
TTITLE7=Always On My Mind
TTITLE8=Blue Clear Sky
TTITLE9=Sold
TTITLE10=Waco
TTITLE11=Something Like That
TTITLE12=Honey (Is It You?)
TTITLE13=My Lord What A Morning
EXTD=
EXTT0=
EXTT1=
EXTT2=
EXTT3=
EXTT4=
EXTT5=
EXTT6=
EXTT7=
EXTT8=
EXTT9=
EXTT10=
EXTT11=
EXTT12=
EXTT13=
PLAYORDER=
